<svg width="80" height="75" viewBox="0 0 80 75" fill="none" xmlns="http://www.w3.org/2000/svg">
<path d="M5.475 0.585938L11.7594 66.7283L39.9581 74.0994L68.2356 66.7014L74.525 0.585938H5.475ZM61.4694 15.7395L59.3775 37.7736L59.3837 37.8926L59.375 38.1662V38.1639L57.8887 53.5705L57.725 54.9393L40 59.5354L39.9863 59.5471L22.2919 54.9252L21.0937 42.1875H29.7706L30.3862 48.6645L40.0025 51.1078L40 51.1125V51.1113L49.6519 48.6334L50.6719 38.0859H30.495L30.3219 36.3029L29.9275 32.1258L29.7206 29.8828H51.4387L52.2287 21.6797H19.15L18.9769 19.8979L18.5831 15.7195L18.3756 13.4766H61.6762L61.4694 15.7395Z" fill="#1572B6"/>
</svg>
