<svg width="77" height="73" viewBox="0 0 77 73" fill="none" xmlns="http://www.w3.org/2000/svg">
<path d="M75.5474 34.8822L41.9283 4.32005C39.9935 2.55998 36.8533 2.55998 34.9155 4.32005L27.935 10.6672L36.7905 18.7178C38.8492 18.0862 41.2085 18.5098 42.8487 20.0009C44.4975 21.5015 44.9598 23.6647 44.248 25.5423L52.7827 33.3018C54.8475 32.6547 57.2306 33.0728 58.8788 34.5744C61.1845 36.6689 61.1845 40.0642 58.8788 42.1598C58.3308 42.6581 57.6803 43.0535 56.9642 43.3232C56.2482 43.5929 55.4807 43.7318 54.7056 43.7318C53.9306 43.7318 53.1631 43.5929 52.4471 43.3232C51.731 43.0535 51.0805 42.6581 50.5325 42.1598C49.7093 41.4109 49.1482 40.4574 48.9197 39.4193C48.6912 38.3811 48.8056 37.3048 49.2485 36.3256L41.2896 29.0902L41.2884 48.1331C41.8659 48.3917 42.3931 48.734 42.8493 49.1468C45.1538 51.2412 45.1538 54.6355 42.8493 56.7344C40.5443 58.8288 36.8082 58.8288 34.5056 56.7344C32.2011 54.6361 32.2011 51.2418 34.5056 49.1468C35.0577 48.6441 35.7144 48.2463 36.4373 47.9767V28.7574C35.7138 28.4886 35.0569 28.0906 34.5056 27.5868C32.7598 26.0009 32.3395 23.6719 33.235 21.7222L24.5045 13.7852L1.45246 34.7408C0.522451 35.5865 0 36.7334 0 37.9293C0 39.1252 0.522451 40.2721 1.45246 41.1178L35.0722 71.68C37.0083 73.44 40.1472 73.44 42.0863 71.68L75.548 41.2598C76.4779 40.4138 77.0001 39.2668 77 38.0709C76.9999 36.875 76.4774 35.728 75.5474 34.8822Z" fill="#F34F29"/>
</svg>
