<svg width="80" height="70" viewBox="0 0 80 70" fill="none" xmlns="http://www.w3.org/2000/svg">
<g clip-path="url(#clip0_8_69)">
<path d="M10 0V70H80V0H10ZM47.0266 59.6473C45.9934 61.7467 44.0211 63.126 41.7358 63.7918C38.224 64.5982 34.8651 64.1385 32.3664 62.6388C30.6942 61.6129 29.3883 60.0337 28.5018 58.2142L33.833 54.9494C33.8795 54.969 34.0195 55.2222 34.2066 55.5492C34.8864 56.6882 35.4727 57.4946 36.6252 58.0608C37.7575 58.4472 40.2434 58.6942 41.2032 56.7017C41.7895 55.6881 41.603 52.43 41.603 48.8253C41.6025 43.1609 41.6288 37.52 41.6288 31.92H48.1858C48.1858 38.08 48.2194 43.9141 48.1858 49.9251C48.1998 53.6099 48.5196 56.8949 47.0266 59.6473ZM74.2281 57.7948C71.9489 65.5911 59.2414 65.8442 54.1633 60.6934C53.0903 59.481 52.4178 58.8476 51.7777 57.4482C54.4763 55.8958 54.4763 55.8958 57.1022 54.3766C58.5285 56.569 59.8473 57.7746 62.22 58.268C65.4389 58.6611 68.6774 57.5551 67.951 54.1363C67.2046 51.3442 61.3598 50.6649 57.3822 47.679C53.344 44.9669 52.3976 38.3768 55.7162 34.6114C56.8222 33.2186 58.7082 32.1793 60.6873 31.6798L62.7526 31.4126C66.7179 31.3326 69.1965 32.3798 71.0159 34.4114C71.5222 34.9244 71.9354 35.4777 72.7082 36.6766C70.5959 38.0229 70.6026 38.01 67.577 39.9689C66.9307 38.5767 65.8583 37.7031 64.7249 37.3234C62.9654 36.7903 60.7466 37.3699 60.2863 39.2291C60.1267 39.802 60.1598 40.3351 60.4134 41.2815C61.1263 42.9072 63.5186 43.6139 65.6646 44.6001C71.8419 47.1055 73.9279 49.7918 74.4409 52.9894C74.9348 55.7424 74.3216 57.5282 74.2281 57.7948Z" fill="#F0DB4F"/>
</g>
<defs>
<clipPath id="clip0_8_69">
<rect width="80" height="69.5238" fill="white"/>
</clipPath>
</defs>
</svg>
