<svg width="80" height="75" viewBox="0 0 80 75" fill="none" xmlns="http://www.w3.org/2000/svg">
<g clip-path="url(#clip0_8_65)">
<path d="M40.875 46.8839C44.898 46.8839 48.1594 43.6882 48.1594 39.7461C48.1594 35.8041 44.898 32.6084 40.875 32.6084C36.852 32.6084 33.5907 35.8041 33.5907 39.7461C33.5907 43.6882 36.852 46.8839 40.875 46.8839Z" fill="#61DAFB"/>
<path d="M68.5427 27.9751C67.137 27.4742 65.6673 26.9733 64.1338 26.535C64.5172 25.0323 64.8367 23.5296 65.0923 22.0896C66.4341 13.8248 64.9645 8.00191 60.875 5.74788C59.6609 5.05915 58.3191 4.74609 56.7855 4.74609C52.3127 4.74609 46.6258 8.00191 40.875 13.4491C35.1242 8.00191 29.4373 4.74609 24.9645 4.74609C23.4309 4.74609 22.0891 5.05915 20.875 5.74788C16.7855 8.06452 15.3159 13.8874 16.6577 22.0896C16.9133 23.5296 17.2328 25.0323 17.6162 26.535C16.0827 26.9733 14.613 27.4116 13.2073 27.9751C5.22005 30.9804 0.875 35.1128 0.875 39.7461C0.875 44.3794 5.28395 48.5117 13.2073 51.5171C14.613 52.018 16.0827 52.5189 17.6162 52.9572C17.2328 54.4599 16.9133 55.9626 16.6577 57.4026C15.3159 65.6674 16.7855 71.4903 20.875 73.7443C22.0891 74.433 23.4309 74.7461 24.9645 74.7461C29.5012 74.7461 35.1881 71.4903 40.875 66.0431C46.6258 71.4903 52.3127 74.7461 56.7855 74.7461C58.3191 74.7461 59.6609 74.433 60.875 73.7443C64.9645 71.4277 66.4341 65.6048 65.0923 57.4026C64.8367 55.9626 64.5172 54.4599 64.1338 52.9572C65.6673 52.5189 67.137 52.0806 68.5427 51.5171C76.53 48.5117 80.875 44.3794 80.875 39.7461C80.875 35.1128 76.53 30.9804 68.5427 27.9751ZM59.0859 8.87847C61.7057 10.3812 62.6002 15.0144 61.514 21.5887C61.3223 22.9035 61.0028 24.281 60.6194 25.721C57.2967 24.9697 53.7823 24.4688 50.0763 24.1558C47.9038 21.1504 45.6673 18.4581 43.4309 16.0162C48.1593 11.4456 52.9517 8.31497 56.8494 8.31497C57.6801 8.31497 58.4469 8.5028 59.0859 8.87847ZM51.9293 46.0073C50.7792 48.0109 49.4373 50.0144 48.0315 52.018C45.6673 52.2058 43.3031 52.2685 40.875 52.2685C38.383 52.2685 36.0188 52.2058 33.7184 52.018C32.3127 50.0144 31.0347 48.0109 29.8846 46.0073C28.6705 43.9411 27.5204 41.8123 26.498 39.7461C27.5204 37.6799 28.6705 35.5511 29.8846 33.4849C31.0347 31.4813 32.3766 29.4778 33.7823 27.4742C36.1466 27.2863 38.5108 27.2237 40.9389 27.2237C43.4309 27.2237 45.7951 27.2863 48.0954 27.4742C49.5012 29.4778 50.7792 31.4813 51.9293 33.4849C53.1434 35.5511 54.2935 37.6799 55.3159 39.7461C54.2296 41.8123 53.1434 43.8785 51.9293 46.0073ZM57.2328 43.9411C58.1913 46.1325 58.9581 48.2613 59.6609 50.3901C57.4884 50.891 55.1881 51.2667 52.76 51.5797C53.5268 50.3901 54.3574 49.1379 55.0603 47.823C55.8271 46.5082 56.5299 45.1933 57.2328 43.9411ZM40.875 60.9089C39.3415 59.281 37.8718 57.5278 36.4661 55.7121C37.9357 55.7747 39.4053 55.8373 40.875 55.8373C42.3446 55.8373 43.8143 55.7747 45.2839 55.7121C43.8782 57.5278 42.4085 59.281 40.875 60.9089ZM28.99 51.5171C26.5619 51.2041 24.2616 50.8284 22.0891 50.3275C22.7919 48.2613 23.5587 46.0699 24.5172 43.8785C25.22 45.1307 25.9229 46.4456 26.6897 47.6978C27.4565 49.0753 28.2232 50.2649 28.99 51.5171ZM24.5172 35.5511C23.5587 33.3597 22.7919 31.2309 22.0891 29.1021C24.2616 28.6012 26.5619 28.2255 28.99 27.9125C28.2232 29.1021 27.3926 30.3543 26.6897 31.6692C25.9229 32.984 25.22 34.2989 24.5172 35.5511ZM40.875 18.5833C42.4085 20.2112 43.8782 21.9643 45.2839 23.7801C43.8143 23.7175 42.3446 23.6549 40.875 23.6549C39.4053 23.6549 37.9357 23.7175 36.4661 23.7801C37.8718 21.9643 39.3415 20.2112 40.875 18.5833ZM55.0603 31.7318L52.76 27.9751C55.1881 28.2881 57.4884 28.6638 59.6609 29.1647C58.9581 31.2309 58.1913 33.4223 57.2328 35.6137C56.5299 34.2989 55.8271 32.984 55.0603 31.7318ZM20.236 21.5887C19.1498 15.0144 20.0443 10.3812 22.6641 8.87847C23.3031 8.5028 24.0699 8.31497 24.9006 8.31497C28.7344 8.31497 33.5268 11.3829 38.3191 16.0162C36.0827 18.3955 33.8462 21.1504 31.6737 24.1558C27.9676 24.4688 24.4533 25.0323 21.1306 25.721C20.7472 24.281 20.4916 22.9035 20.236 21.5887ZM4.45327 39.7461C4.45327 36.8033 8.09545 33.6727 14.4852 31.3561C15.7632 30.8552 17.1689 30.4169 18.5747 30.0413C19.597 33.1719 20.875 36.4903 22.4085 39.8087C20.875 43.1271 19.5331 46.3829 18.5747 49.5135C9.75679 47.0091 4.45327 43.2524 4.45327 39.7461ZM22.6641 70.6137C20.0443 69.111 19.1498 64.4778 20.236 57.9035C20.4277 56.5887 20.7472 55.2112 21.1306 53.7711C24.4533 54.5225 27.9676 55.0234 31.6737 55.3364C33.8462 58.3418 36.0827 61.0341 38.3191 63.476C33.5907 68.0466 28.7983 71.1772 24.9006 71.1772C24.0699 71.1772 23.3031 70.9894 22.6641 70.6137ZM61.514 57.9035C62.6002 64.4778 61.7057 69.111 59.0859 70.6137C58.4469 70.9894 57.6801 71.1772 56.8494 71.1772C53.0156 71.1772 48.2232 68.1092 43.4309 63.476C45.6673 61.0967 47.9038 58.3418 50.0763 55.3364C53.7823 55.0234 57.2967 54.4599 60.6194 53.7711C61.0028 55.2112 61.2584 56.5887 61.514 57.9035ZM67.2648 48.1361C65.9868 48.637 64.5811 49.0753 63.1753 49.4509C62.153 46.3203 60.875 43.0019 59.3415 39.6835C60.875 36.3651 62.2169 33.1092 63.1753 29.9787C71.9932 32.4831 77.2967 36.2398 77.2967 39.7461C77.2967 42.6889 73.5907 45.8194 67.2648 48.1361Z" fill="#61DAFB"/>
</g>
<defs>
<clipPath id="clip0_8_65">
<rect width="80" height="75" fill="white"/>
</clipPath>
</defs>
</svg>
